<svg width="32" height="32" viewBox="0 0 32 32" fill="none" xmlns="http://www.w3.org/2000/svg">
<g clip-path="url(#clip0_1_33849)" filter="url(#filter0_d_1_33849)">
<path d="M32 9.63591C32 12.2265 30.9984 14.6453 29.1797 16.4453L26.0382 19.6015C25.725 19.9156 25.3148 20.0727 24.9039 20.0727C24.4953 20.0727 24.0875 19.9172 23.775 19.607C23.1492 18.9836 23.1469 17.9703 23.7696 17.3438L26.9196 14.179C28.1352 12.9766 28.8 11.3657 28.8 9.63598C28.8 7.90785 28.1336 6.28991 26.9227 5.08054C24.4149 2.57116 20.3336 2.57191 17.8242 5.07979L14.6782 8.24229C14.0563 8.86885 13.043 8.87116 12.4149 8.24779C11.7891 7.62435 11.786 6.61104 12.4094 5.98448L15.5586 2.8196C19.3179 -0.939836 25.4305 -0.939086 29.1851 2.81716C31 4.63123 32 7.0531 32 9.63591V9.63591ZM17.3484 23.7649L14.1797 26.9172C11.6703 29.425 7.58906 29.425 5.08125 26.9172C3.86794 25.7039 3.2 24.0891 3.2 22.3688C3.2 20.6493 3.868 19.0337 5.07812 17.8235L8.24375 14.6742C8.87031 14.0508 8.87344 13.0375 8.25 12.4117C7.62656 11.7836 6.6125 11.782 5.9875 12.4055L2.81875 15.5578C1.00081 17.3758 0 19.7945 0 22.3687C0 24.9437 1.00081 27.3625 2.81875 29.1797C4.69687 31.0585 7.16406 31.9969 9.63125 31.9969C12.0976 31.9969 14.5632 31.0585 16.4391 29.1828L19.6047 26.0335C20.2312 25.4101 20.2344 24.3968 19.6109 23.771C18.9875 23.1429 17.9734 23.1414 17.3484 23.7649V23.7649ZM19.6914 10.0469L10.05 19.6875C9.425 20.3125 9.425 21.325 10.05 21.95C10.3625 22.2625 10.7719 22.4187 11.1812 22.4187C11.5906 22.4187 12 22.2625 12.3125 21.95L21.9539 12.3094C22.5789 11.6844 22.5789 10.6719 21.9539 10.0469C21.3289 9.42185 20.3164 9.42185 19.6914 10.0469Z" fill="#5463D5"/>
</g>
<defs>
<filter id="filter0_d_1_33849" x="0" y="0" width="32" height="32" filterUnits="userSpaceOnUse" color-interpolation-filters="sRGB">
<feFlood flood-opacity="0" result="BackgroundImageFix"/>
<feColorMatrix in="SourceAlpha" type="matrix" values="0 0 0 0 0 0 0 0 0 0 0 0 0 0 0 0 0 0 127 0" result="hardAlpha"/>
<feOffset/>
<feColorMatrix type="matrix" values="0 0 0 0 1 0 0 0 0 1 0 0 0 0 1 0 0 0 1 0"/>
<feBlend mode="normal" in2="BackgroundImageFix" result="effect1_dropShadow_1_33849"/>
<feBlend mode="normal" in="SourceGraphic" in2="effect1_dropShadow_1_33849" result="shape"/>
</filter>
<clipPath id="clip0_1_33849">
<rect width="32" height="32" fill="white"/>
</clipPath>
</defs>
</svg>
