<svg width="32" height="32" viewBox="0 0 32 32" fill="none" xmlns="http://www.w3.org/2000/svg">
<g filter="url(#filter0_d_1_40205)">
<path d="M29.9422 18.1156C29.3148 17.4906 28.3024 17.4922 27.6797 18.1187L19.6351 26.1859C17.9781 27.8469 15.6695 28.8 13.3008 28.8C10.9945 28.8 8.85308 27.9258 7.26952 26.3383C3.9562 23.0149 4.02577 17.3297 7.42108 13.9242L16.5851 4.73438C18.5586 2.75625 21.9992 2.75625 23.9726 4.73438C26.0125 6.7805 26.0125 10.1094 23.9726 12.1555L14.7648 21.3899C14.0805 22.0758 12.8883 22.0758 12.2039 21.3899C11.4945 20.6782 11.4945 19.5204 12.2039 18.8086L20.2922 10.6977C20.9164 10.0719 20.9148 9.05862 20.2891 8.43519C19.6625 7.81019 18.65 7.81175 18.0266 8.43831L9.93827 16.5492C7.98589 18.5071 7.98589 21.6914 9.93827 23.6493C11.832 25.5493 15.1367 25.5493 17.0305 23.6493L26.2383 14.4149C29.5211 11.1227 29.5211 5.76725 26.2383 2.475C24.6469 0.878875 22.5305 0 20.2789 0C18.0273 0 15.9109 0.878875 14.3195 2.475L5.15545 11.6648C0.458579 16.375 0.390641 23.9711 5.00389 28.5976C7.19139 30.7914 10.1383 32 13.3008 32C16.5133 32 19.6484 30.7047 21.9008 28.4453L29.9453 20.3781C30.5695 19.7524 30.568 18.7391 29.9422 18.1156V18.1156Z" fill="#5463D5"/>
</g>
<defs>
<filter id="filter0_d_1_40205" x="0" y="0" width="32" height="32" filterUnits="userSpaceOnUse" color-interpolation-filters="sRGB">
<feFlood flood-opacity="0" result="BackgroundImageFix"/>
<feColorMatrix in="SourceAlpha" type="matrix" values="0 0 0 0 0 0 0 0 0 0 0 0 0 0 0 0 0 0 127 0" result="hardAlpha"/>
<feOffset/>
<feColorMatrix type="matrix" values="0 0 0 0 1 0 0 0 0 1 0 0 0 0 1 0 0 0 1 0"/>
<feBlend mode="normal" in2="BackgroundImageFix" result="effect1_dropShadow_1_40205"/>
<feBlend mode="normal" in="SourceGraphic" in2="effect1_dropShadow_1_40205" result="shape"/>
</filter>
</defs>
</svg>
